<mxfile host="app.diagrams.net" modified="2023-06-25T05:18:40.756Z" agent="Mozilla/5.0 (Windows NT 10.0; Win64; x64) AppleWebKit/537.36 (KHTML, like Gecko) Chrome/114.0.0.0 Safari/537.36" etag="NfPCJWJvxlFkuYcPS_vO" version="21.5.0" type="device">
  <diagram name="Page-1" id="4E7a-Lf5X4EZXsTUNQF7">
    <mxGraphModel dx="1050" dy="579" grid="1" gridSize="10" guides="1" tooltips="1" connect="1" arrows="1" fold="1" page="1" pageScale="1" pageWidth="850" pageHeight="1100" math="0" shadow="0">
      <root>
        <mxCell id="0" />
        <mxCell id="1" parent="0" />
        <mxCell id="ICUF-PF5C_CHbQi0rE6b-1" value="" style="rounded=0;whiteSpace=wrap;html=1;fillColor=#4D4D4D;strokeColor=#9673a6;" parent="1" vertex="1">
          <mxGeometry x="160" y="320" width="480" height="60" as="geometry" />
        </mxCell>
        <mxCell id="ICUF-PF5C_CHbQi0rE6b-17" value="" style="group" parent="1" vertex="1" connectable="0">
          <mxGeometry x="160" y="332.5" width="70" height="87.5" as="geometry" />
        </mxCell>
        <mxCell id="ICUF-PF5C_CHbQi0rE6b-5" value="" style="ellipse;whiteSpace=wrap;html=1;aspect=fixed;fillColor=#00FF00;" parent="ICUF-PF5C_CHbQi0rE6b-17" vertex="1">
          <mxGeometry x="17.5" width="35" height="35" as="geometry" />
        </mxCell>
        <mxCell id="ICUF-PF5C_CHbQi0rE6b-16" value="i = 0" style="text;strokeColor=none;fillColor=none;html=1;fontSize=24;fontStyle=1;verticalAlign=middle;align=center;" parent="ICUF-PF5C_CHbQi0rE6b-17" vertex="1">
          <mxGeometry y="47.5" width="70" height="40" as="geometry" />
        </mxCell>
        <mxCell id="ICUF-PF5C_CHbQi0rE6b-18" value="" style="group" parent="1" vertex="1" connectable="0">
          <mxGeometry x="263" y="332.5" width="70" height="87.5" as="geometry" />
        </mxCell>
        <mxCell id="ICUF-PF5C_CHbQi0rE6b-22" value="" style="group" parent="ICUF-PF5C_CHbQi0rE6b-18" vertex="1" connectable="0">
          <mxGeometry width="70" height="87.5" as="geometry" />
        </mxCell>
        <mxCell id="ICUF-PF5C_CHbQi0rE6b-2" value="" style="ellipse;whiteSpace=wrap;html=1;aspect=fixed;" parent="ICUF-PF5C_CHbQi0rE6b-22" vertex="1">
          <mxGeometry x="17.5" width="35" height="35" as="geometry" />
        </mxCell>
        <mxCell id="ICUF-PF5C_CHbQi0rE6b-10" value="i = 1" style="text;strokeColor=none;fillColor=none;html=1;fontSize=24;fontStyle=1;verticalAlign=middle;align=center;" parent="ICUF-PF5C_CHbQi0rE6b-22" vertex="1">
          <mxGeometry y="47.5" width="70" height="40" as="geometry" />
        </mxCell>
        <mxCell id="ICUF-PF5C_CHbQi0rE6b-19" value="" style="group" parent="1" vertex="1" connectable="0">
          <mxGeometry x="570" y="332.5" width="70" height="87.5" as="geometry" />
        </mxCell>
        <mxCell id="ICUF-PF5C_CHbQi0rE6b-4" value="" style="ellipse;whiteSpace=wrap;html=1;aspect=fixed;fillColor=#00FF00;" parent="ICUF-PF5C_CHbQi0rE6b-19" vertex="1">
          <mxGeometry x="17.5" width="35" height="35" as="geometry" />
        </mxCell>
        <mxCell id="ICUF-PF5C_CHbQi0rE6b-13" value="i = 4" style="text;strokeColor=none;fillColor=none;html=1;fontSize=24;fontStyle=1;verticalAlign=middle;align=center;" parent="ICUF-PF5C_CHbQi0rE6b-19" vertex="1">
          <mxGeometry y="47.5" width="70" height="40" as="geometry" />
        </mxCell>
        <mxCell id="ICUF-PF5C_CHbQi0rE6b-20" value="" style="group" parent="1" vertex="1" connectable="0">
          <mxGeometry x="468" y="332.5" width="70" height="87.5" as="geometry" />
        </mxCell>
        <mxCell id="ICUF-PF5C_CHbQi0rE6b-3" value="" style="ellipse;whiteSpace=wrap;html=1;aspect=fixed;" parent="ICUF-PF5C_CHbQi0rE6b-20" vertex="1">
          <mxGeometry x="17.5" width="35" height="35" as="geometry" />
        </mxCell>
        <mxCell id="ICUF-PF5C_CHbQi0rE6b-12" value="i = 3" style="text;strokeColor=none;fillColor=none;html=1;fontSize=24;fontStyle=1;verticalAlign=middle;align=center;" parent="ICUF-PF5C_CHbQi0rE6b-20" vertex="1">
          <mxGeometry y="47.5" width="70" height="40" as="geometry" />
        </mxCell>
        <mxCell id="ICUF-PF5C_CHbQi0rE6b-21" value="" style="group" parent="1" vertex="1" connectable="0">
          <mxGeometry x="365" y="332.5" width="70" height="87.5" as="geometry" />
        </mxCell>
        <mxCell id="ICUF-PF5C_CHbQi0rE6b-7" value="" style="ellipse;whiteSpace=wrap;html=1;aspect=fixed;movable=1;resizable=1;rotatable=1;deletable=1;editable=1;locked=0;connectable=1;fillColor=#00FF00;" parent="ICUF-PF5C_CHbQi0rE6b-21" vertex="1">
          <mxGeometry x="17.5" width="35" height="35" as="geometry" />
        </mxCell>
        <mxCell id="ICUF-PF5C_CHbQi0rE6b-11" value="i = 2" style="text;strokeColor=none;fillColor=none;html=1;fontSize=24;fontStyle=1;verticalAlign=middle;align=center;movable=1;resizable=1;rotatable=1;deletable=1;editable=1;locked=0;connectable=1;" parent="ICUF-PF5C_CHbQi0rE6b-21" vertex="1">
          <mxGeometry y="47.5" width="70" height="40" as="geometry" />
        </mxCell>
      </root>
    </mxGraphModel>
  </diagram>
</mxfile>
